<svg xmlns="http://www.w3.org/2000/svg" xmlns:xlink="http://www.w3.org/1999/xlink" width="640.969" height="400" viewBox="0 0 640.969 400">
  <metadata><?xpacket begin="﻿" id="W5M0MpCehiHzreSzNTczkc9d"?>
<x:xmpmeta xmlns:x="adobe:ns:meta/" x:xmptk="Adobe XMP Core 5.6-c142 79.160924, 2017/07/13-01:06:39        ">
   <rdf:RDF xmlns:rdf="http://www.w3.org/1999/02/22-rdf-syntax-ns#">
      <rdf:Description rdf:about=""/>
   </rdf:RDF>
</x:xmpmeta>
                                                                                                    
                                                                                                    
                                                                                                    
                                                                                                    
                                                                                                    
                                                                                                    
                                                                                                    
                                                                                                    
                                                                                                    
                                                                                                    
                                                                                                    
                                                                                                    
                                                                                                    
                                                                                                    
                                                                                                    
                                                                                                    
                                                                                                    
                                                                                                    
                                                                                                    
                                                                                                    
                           
<?xpacket end="w"?></metadata>
<defs>
    <style>
      .cls-1 {
        fill-rule: evenodd;
        fill: url(#linear-gradient);
      }
    </style>
    <linearGradient id="linear-gradient" x1="980.515" y1="907" x2="1380.515" y2="507" gradientUnits="userSpaceOnUse">
      <stop offset="0" stop-color="#b51f5d"/>
      <stop offset="0.214" stop-color="#665f9d"/>
      <stop offset="0.572" stop-color="#03868a"/>
      <stop offset="1" stop-color="#7fc349"/>
    </linearGradient>
  </defs>
  <path class="cls-1" d="M1042.01,901.62S950.016,937.008,883.571,826c-45.54-94.3-9.053-134.746-19.746-196.956,0,0,77.357,8.522,129.771,57.869a11.806,11.806,0,0,1,3.685,8.037c0.617,13.1-9.25,45.526-27.593,82.435,0,0,21.91-18.276,45.352-76.483,0,0,13.7,26.551,41.61,68.878,25.94,39.331,98.54,131.719,220.94,43.086,9.07-6.569,67.54-54.615,67.54-54.615l1.26,2.51s-49.45,47.57-65.69,59.885c-34.29,27.964-102.23,82.26-152.97,83.7-40.77,1.156-71.49,5.356-126.23-37.545-66.776-52.336-85.229-94.065-104.871-142.418,0,0-.012,50.642,49.711,102.825C995.882,879.2,1012.53,883.629,1042.01,901.62Zm311.68-305.106c17.39-23.051,38.61-48.991,64.03-66.271S1479.21,507,1479.21,507s34.56-1.355,16.63,38.146c-16.84,37.1-79.52,129-79.52,129L1404.71,629s-1.96-.077-2.99,7.344,1.58,39.205,7.36,115.135c1.3,17.066,2.17,25.932-24.23,48.317l-56.45-88.775-1.5,1.968,15.72,41.493s-40.48,38.967-90.3,65.238c-49.35,26.019-76.4,28.848-97.83,21.329,19.64-12.916,28.39-17.71,47.47-37.141C1261.97,742.8,1297.4,671.08,1353.69,596.514Zm-70.4,88.281,56.63-79.388a1.043,1.043,0,0,0-1.06-1.653s-58.28,18.474-90.63,27.874c-7.46,2.168-14.61,7.129-19.88,12.837l-16.14,15.75a1.043,1.043,0,0,0,.5,1.719l69.49,23.236A1.037,1.037,0,0,0,1283.29,684.8ZM1149.47,836.032s22.83-6.836,59.18-49.477c48.17-56.516,49.1-62.312,56.57-71.953-0.44-.408-2.21-2.727-2.65-3.134-12.45,11.851-38.32,42.726-113.5,85.332-14.19,7.936-40.87,18.34-40.87,18.34a78.184,78.184,0,0,0,6.41,6.247C1135.97,839.379,1149.47,836.032,1149.47,836.032Z" transform="translate(-860.031 -507)"/>
</svg>
